<?xml version="1.0" encoding="UTF-8"?>
<svg width="202px" height="42px" viewBox="0 0 202 42" version="1.1" xmlns="http://www.w3.org/2000/svg" xmlns:xlink="http://www.w3.org/1999/xlink">
    <!-- Generator: Sketch 46.2 (44496) - http://www.bohemiancoding.com/sketch -->
    <title>Tandem Logo</title>
    <defs>
        <polygon id="path-1" points="69.6290537 41.5542857 0.000230857143 41.5542857 0.000230857143 0.000230857143 69.6290537 0.000230857143 69.6290537 41.5542857"></polygon>
        <polygon id="path-3" points="0 41.5542857 201.950366 41.5542857 201.950366 0 0 0"></polygon>
    </defs>
    <g id="Page-1" stroke="none" stroke-width="1" fill="none" fill-rule="evenodd">
        <g id="tandem-logo">
            <g id="Group-3">
                <mask id="mask-2" fill="#fff">
                    <use xlink:href="#path-1"></use>
                </mask>
                <g id="Clip-2"></g>
                <path d="M64.2073737,0.000230857143 L5.42537371,0.000230857143 C2.428848,0.000230857143 0.000230857143,2.42538514 0.000230857143,5.426528 L0.000230857143,36.1328366 C0.000230857143,39.1258994 2.428848,41.5545166 5.42537371,41.5545166 L33.4329623,41.5545166 L33.4329623,11.9620937 L16.0632709,11.9620937 L16.0632709,9.547328 L53.5706309,9.547328 L53.5706309,11.9620937 L36.2020937,11.9620937 L36.2020937,41.5545166 L64.1981394,41.5545166 C67.2027451,41.5545166 69.6290537,39.1258994 69.6290537,36.1328366 L69.6290537,5.426528 C69.6290537,2.42538514 67.2027451,0.000230857143 64.2073737,0.000230857143" id="Fill-1" fill="#006181" mask="url(#mask-2)"></path>
            </g>
            <polygon id="Fill-4" fill="#231F20" points="82.2537074 8.38854057 87.0993989 8.38854057 87.0993989 21.0752949 90.5991931 21.0752949 90.5991931 8.38854057 95.4379589 8.38854057 95.4379589 5.15884914 82.2537074 5.15884914"></polygon>
            <path d="M104.185136,14.4586983 L106.282473,9.33597829 L108.384427,14.4586983 L104.185136,14.4586983 Z M104.726496,5.15861829 L97.9543017,21.075064 L101.499113,21.075064 L102.943125,17.5290983 L109.62413,17.5290983 L111.07045,21.075064 L114.704142,21.075064 L107.931947,5.15861829 L104.726496,5.15861829 Z" id="Fill-6" fill="#231F20"></path>
            <polygon id="Fill-8" fill="#231F20" points="130.180805 14.9608126 122.724119 5.15861829 119.494427 5.15861829 119.494427 21.075064 122.949205 21.075064 122.949205 10.958904 130.657525 21.075064 133.633273 21.075064 133.633273 5.15861829 130.180805 5.15861829"></polygon>
            <path d="M151.184534,13.1640514 C151.184534,15.9816629 149.256877,17.9139371 146.388477,17.9139371 L143.682831,17.9139371 L143.682831,8.31951429 L146.388477,8.31951429 C149.256877,8.31951429 151.184534,10.2968057 151.184534,13.1190343 L151.184534,13.1640514 Z M146.388477,5.15792571 L140.183037,5.15792571 L140.183037,21.0755257 L146.388477,21.0755257 C151.387688,21.0755257 154.848237,17.5942 154.848237,13.1190343 L154.848237,13.0728629 C154.848237,8.59192571 151.387688,5.15792571 146.388477,5.15792571 L146.388477,5.15792571 Z" id="Fill-10" fill="#231F20"></path>
            <polygon id="Fill-12" fill="#231F20" points="171.898537 17.9593006 163.261017 17.9593006 163.261017 14.6176434 170.766183 14.6176434 170.766183 11.5022263 163.261017 11.5022263 163.261017 8.27368914 171.785417 8.27368914 171.785417 5.158272 159.780846 5.158272 159.780846 21.0747177 171.898537 21.0747177"></polygon>
            <polygon id="Fill-14" fill="#231F20" points="190.177806 21.0749486 193.657977 21.0749486 193.657977 5.15850286 189.884617 5.15850286 185.70264 11.8891429 181.5172 5.15850286 177.74384 5.15850286 177.74384 21.0749486 181.178994 21.0749486 181.178994 10.75448 185.609143 17.4828114 185.70264 17.4828114 190.177806 10.6840686"></polygon>
            <path d="M89.1823074,31.7155006 C89.1823074,33.7274206 87.714056,35.2891691 85.4101017,35.2891691 L83.2839074,35.2891691 L83.2839074,28.0875806 L85.4101017,28.0875806 C87.714056,28.0875806 89.1823074,29.6747234 89.1823074,31.688952 L89.1823074,31.7155006 Z M85.4101017,27.1410663 L82.2542846,27.1410663 L82.2542846,36.2356834 L85.4101017,36.2356834 C88.271576,36.2356834 90.2477131,34.2445406 90.2477131,31.688952 L90.2477131,31.6624034 C90.2477131,29.103352 88.271576,27.1410663 85.4101017,27.1410663 L85.4101017,27.1410663 Z" id="Fill-16" fill="#231F20"></path>
            <mask id="mask-4" fill="#fff">
                <use xlink:href="#path-3"></use>
            </mask>
            <g id="Clip-19"></g>
            <polygon id="Fill-18" fill="#231F20" mask="url(#mask-4)" points="92.8992229 36.2353371 93.9288457 36.2353371 93.9288457 27.14072 92.8992229 27.14072"></polygon>
            <path d="M98.4785783,32.9126103 L100.55283,28.273536 L102.619001,32.9126103 L98.4785783,32.9126103 Z M100.085344,27.0765417 L95.940304,36.2357989 L96.9964754,36.2357989 L98.0722697,33.8314217 L103.023001,33.8314217 L104.087253,36.2357989 L105.188441,36.2357989 L101.046864,27.0765417 L100.085344,27.0765417 Z" id="Fill-20" fill="#231F20" mask="url(#mask-4)"></path>
            <path d="M113.421153,33.6886366 C113.421153,34.7032537 112.56121,35.3138709 111.185302,35.3138709 L108.134525,35.3138709 L108.134525,32.1038023 L111.002925,32.1038023 C112.586605,32.1038023 113.421153,32.676328 113.421153,33.662088 L113.421153,33.6886366 Z M108.134525,28.0661109 L110.901347,28.0661109 C112.199919,28.0661109 112.910959,28.6501794 112.910959,29.5447509 L112.910959,29.5701451 C112.910959,30.6355509 112.056787,31.1953794 110.822856,31.1953794 L108.134525,31.1953794 L108.134525,28.0661109 Z M112.510422,31.5312766 C113.226079,31.2196194 113.953279,30.6066937 113.953279,29.4304766 L113.953279,29.4050823 C113.953279,28.8187051 113.744353,28.3362137 113.370365,27.9460651 C112.846319,27.4381794 112.029085,27.141528 110.989073,27.141528 L107.119907,27.141528 L107.119907,36.2361451 L111.157599,36.2361451 C113.147587,36.2361451 114.457702,35.3138709 114.457702,33.7532766 L114.457702,33.726728 C114.457702,32.4777909 113.58737,31.8579394 112.510422,31.5312766 L112.510422,31.5312766 Z" id="Fill-21" fill="#231F20" mask="url(#mask-4)"></path>
            <polygon id="Fill-22" fill="#231F20" mask="url(#mask-4)" points="117.918827 32.1145371 122.882256 32.1145371 122.882256 31.18072 117.918827 31.18072 117.918827 28.0768457 123.468633 28.0768457 123.468633 27.14072 116.890359 27.14072 116.890359 36.2353371 123.532119 36.2353371 123.532119 35.3026743 117.918827 35.3026743"></polygon>
            <polygon id="Fill-23" fill="#231F20" mask="url(#mask-4)" points="125.341693 28.0880423 128.395933 28.0880423 128.395933 36.2361451 129.43479 36.2361451 129.43479 28.0880423 132.48903 28.0880423 132.48903 27.141528 125.341693 27.141528"></polygon>
            <polygon id="Fill-24" fill="#231F20" mask="url(#mask-4)" points="135.83161 32.1145371 140.793885 32.1145371 140.793885 31.18072 135.83161 31.18072 135.83161 28.0768457 141.380262 28.0768457 141.380262 27.14072 134.80545 27.14072 134.80545 36.2353371 141.441439 36.2353371 141.441439 35.3026743 135.83161 35.3026743"></polygon>
            <path d="M147.166003,31.1958411 C145.159855,30.7641383 144.694678,30.286264 144.694678,29.429784 L144.694678,29.405544 C144.694678,28.5871554 145.447272,27.9326754 146.633878,27.9326754 C147.566541,27.9326754 148.409169,28.2327897 149.257569,28.9230526 L149.854335,28.1312126 C148.929752,27.3901611 147.986701,27.0115554 146.659272,27.0115554 C144.931306,27.0115554 143.671981,28.0665726 143.671981,29.4909611 L143.671981,29.5175097 C143.671981,31.0123097 144.630038,31.6887211 146.723912,32.144664 C148.631946,32.5452011 149.087889,33.0242297 149.087889,33.8714754 L149.087889,33.8957154 C149.087889,34.7925954 148.282198,35.4447669 147.062118,35.4447669 C145.799329,35.4447669 144.888598,35.0165269 143.942083,34.1577383 L143.304918,34.9103326 C144.396872,35.8845497 145.580015,36.3693497 147.019409,36.3693497 C148.825866,36.3693497 150.127901,35.3547326 150.127901,33.792984 L150.127901,33.768744 C150.127901,32.3766754 149.192929,31.6390869 147.166003,31.1958411" id="Fill-25" fill="#231F20" mask="url(#mask-4)"></path>
            <path d="M161.088421,35.4448823 C159.084581,35.4448823 157.565541,33.7930994 157.565541,31.6888366 L157.565541,31.662288 C157.565541,29.569568 159.070729,27.9327909 161.088421,27.9327909 C162.318889,27.9327909 163.176523,28.4510651 163.946432,29.1794194 L164.641312,28.4268251 C163.734043,27.5726537 162.750592,26.9874309 161.099963,26.9874309 C158.422021,26.9874309 156.498981,29.117088 156.498981,31.6888366 L156.498981,31.7153851 C156.498981,34.3263794 158.435872,36.3937051 161.060718,36.3937051 C162.707883,36.3937051 163.749049,35.7542309 164.697872,34.7927109 L164.021461,34.1301509 C163.147666,34.9623909 162.330432,35.4448823 161.088421,35.4448823" id="Fill-26" fill="#231F20" mask="url(#mask-4)"></path>
            <path d="M168.392856,32.935696 L170.455565,28.3289417 L172.510193,32.935696 L168.392856,32.935696 Z M169.99385,27.1411817 L165.878822,36.2357989 L166.924605,36.2357989 L167.992319,33.848736 L172.907267,33.848736 L173.964593,36.2357989 L175.063473,36.2357989 L170.949599,27.1411817 L169.99385,27.1411817 Z" id="Fill-27" fill="#231F20" mask="url(#mask-4)"></path>
            <path d="M178.306901,31.7791017 L178.306901,28.087696 L181.114123,28.087696 C182.584683,28.087696 183.438855,28.7652617 183.438855,29.8803017 L183.438855,29.9080046 C183.438855,31.0749874 182.466946,31.7791017 181.102581,31.7791017 L178.306901,31.7791017 Z M184.482329,29.8699131 L184.482329,29.8445189 C184.482329,29.130016 184.220306,28.4940046 183.777061,28.0484503 C183.204535,27.4793874 182.314581,27.1411817 181.192615,27.1411817 L177.284203,27.1411817 L177.284203,36.2357989 L178.306901,36.2357989 L178.306901,32.7002217 L180.879803,32.7002217 L180.908661,32.7002217 L183.540432,36.2357989 L184.806683,36.2357989 L182.013312,32.5213074 C183.438855,32.2592846 184.482329,31.3774103 184.482329,29.8699131 L184.482329,29.8699131 Z" id="Fill-28" fill="#231F20" mask="url(#mask-4)"></path>
            <polygon id="Fill-29" fill="#231F20" mask="url(#mask-4)" points="188.109326 32.1145371 193.077371 32.1145371 193.077371 31.18072 188.109326 31.18072 188.109326 28.0768457 193.657977 28.0768457 193.657977 27.14072 187.085474 27.14072 187.085474 36.2353371 193.646434 36.2353371 193.646434 35.3026743 188.109326 35.3026743"></polygon>
            <path d="M198.801128,6.81432571 L198.801128,5.80548 L199.634522,5.80548 C200.038522,5.80548 200.283231,5.99709143 200.283231,6.29489714 L200.283231,6.30990286 C200.283231,6.63079429 200.008511,6.81432571 199.610282,6.81432571 L198.801128,6.81432571 Z M199.985425,7.11905714 C200.412511,7.02094286 200.719551,6.74506857 200.719551,6.28681714 L200.719551,6.27181143 C200.719551,6.04210857 200.627208,5.85165143 200.489848,5.72237143 C200.306317,5.53884 200.008511,5.42341143 199.648374,5.42341143 L198.380968,5.42341143 L198.380968,8.25833714 L198.801128,8.25833714 L198.801128,7.18831429 L199.512168,7.18831429 L199.527174,7.18831429 L200.344408,8.25833714 L200.863837,8.25833714 L199.985425,7.11905714 Z" id="Fill-30" fill="#231F20" mask="url(#mask-4)"></path>
            <path d="M199.466112,4.704176 C198.287586,4.704176 197.328375,5.66338743 197.328375,6.84191314 C197.328375,8.02043886 198.287586,8.978496 199.466112,8.978496 C200.644638,8.978496 201.603849,8.02043886 201.603849,6.84191314 C201.603849,5.66338743 200.644638,4.704176 199.466112,4.704176 M199.466112,9.32478171 C198.095975,9.32478171 196.982089,8.210896 196.982089,6.84191314 C196.982089,5.47293029 198.095975,4.35789029 199.466112,4.35789029 C200.836249,4.35789029 201.950135,5.47293029 201.950135,6.84191314 C201.950135,8.210896 200.836249,9.32478171 199.466112,9.32478171" id="Fill-31" fill="#231F20" mask="url(#mask-4)"></path>
        </g>
    </g>
</svg>
