<svg height="512pt" viewBox="0 -79 512 512" width="512pt" xmlns="http://www.w3.org/2000/svg"><path d="m42.101562 15h427.796876v292.949219h-427.796876zm0 0" fill="#39689f"/><path d="m256 15h213.898438v292.949219h-213.898438zm0 0" fill="#224370"/><path d="m484.898438 0v278.75h-30v-248.75h-397.796876v248.75h-30v-278.75zm0 0" fill="#ddebf0"/><path d="m512 276.449219v49.671875c0 15.828125-12.828125 28.660156-28.660156 28.660156h-454.679688c-15.832031 0-28.660156-12.832031-28.660156-28.660156v-49.671875h212.449219v18.320312h87.101562v-18.320312zm0 0" fill="#83e46f"/><path d="m392.328125 73.449219v30h-144.9375l-52.519531 140.070312-56.53125-114.730469h-18.667969v-30h37.328125l34.128906 69.261719 35.480469-94.601562zm0 0" fill="#75e1f7"/><path d="m349.433594 127.179688-32.804688 32.804687-32.808594-32.804687-21.214843 21.214843 32.808593 32.804688-32.808593 32.804687 21.214843 21.214844 32.808594-32.808594 32.804688 32.808594 21.210937-21.214844-32.804687-32.804687 32.804687-32.804688zm0 0" fill="#96a0f0"/><path d="m484.898438 0v278.75h-30v-248.75h-198.898438v-30zm0 0" fill="#c2d0da"/><path d="m256 73.449219h136.328125v30h-136.328125zm0 0" fill="#96a0f0"/><path d="m512 276.449219v49.671875c0 15.828125-12.828125 28.660156-28.660156 28.660156h-227.339844v-60.011719h43.550781v-18.320312zm0 0" fill="#00b763"/></svg>